<svg width="30" height="20" viewBox="0 0 30 20" fill="none" xmlns="http://www.w3.org/2000/svg">
<path fill-rule="evenodd" clip-rule="evenodd" d="M16.5803 -0.000488281C20.1621 -0.000488281 23.3072 2.22172 24.4988 5.55946C27.7036 6.21356 30 8.99406 30 12.2809C30 16.061 26.9068 19.1361 23.103 19.1361H19.1509C18.8834 19.1361 18.667 18.9205 18.667 18.6541C18.667 18.3887 18.8834 18.1722 19.1509 18.1722H23.103C26.3729 18.1722 29.0323 15.5292 29.0323 12.2809C29.0323 9.37146 26.938 6.92335 24.0547 6.45925L23.7607 6.41125L23.67 6.12885C22.6863 3.03876 19.8369 0.964239 16.5823 0.964239C13.4281 0.964239 10.6101 2.9578 9.56712 5.92751L9.36776 6.49497L8.85553 6.17874C8.25972 5.81162 7.57741 5.61682 6.88226 5.61682C4.80976 5.61682 3.12296 7.29607 3.12296 9.36119L3.14708 9.76397L2.92445 9.98422C1.69923 10.8248 0.967727 12.2103 0.967727 13.688C0.967727 16.1598 2.99294 18.1703 5.48224 18.1703L5.58094 18.1713C5.5884 18.1714 5.59591 18.1716 5.60347 18.1718C5.64378 18.1727 5.68526 18.1736 5.72503 18.1713H10.85C11.117 18.1713 11.3339 18.3877 11.3339 18.6532C11.3339 18.9195 11.117 19.1351 10.85 19.1351H5.7501C5.72699 19.1369 5.69818 19.1369 5.66509 19.1369C5.64994 19.1369 5.634 19.1367 5.6176 19.1365C5.60024 19.1363 5.58237 19.1361 5.5644 19.1361C2.45992 19.1351 0 16.6915 0 13.689C0 11.9844 0.801357 10.3824 2.15523 9.35175C2.15989 6.75953 4.27921 4.65302 6.88226 4.65302C7.56559 4.65302 8.23839 4.80076 8.85651 5.08594C10.1696 2.02124 13.2056 -0.000488281 16.5803 -0.000488281ZM20.0544 14.5144C19.9305 14.5144 19.8067 14.4684 19.7122 14.3742L15.4841 10.1641V18.6532C15.4841 18.9195 15.2677 19.1351 15.0007 19.1351C14.7337 19.1351 14.5169 18.9195 14.5169 18.6532V10.1641L10.2886 14.3742C10.1001 14.5616 9.79346 14.5616 9.60446 14.3742C9.416 14.186 9.416 13.88 9.60446 13.6928L14.6581 8.6599L14.6591 8.65897L15.0007 8.31913L15.3423 8.65897L15.3432 8.6599L20.3964 13.6928C20.5855 13.88 20.5855 14.186 20.3964 14.3742C20.3019 14.4675 20.1781 14.5144 20.0544 14.5144Z" fill="#303030"/>
</svg>
